<svg width="82" height="82" fill="none" xmlns="http://www.w3.org/2000/svg"><g clip-path="url(#clip0_1_31)" fill="#fff"><path d="M41.371.36C19.081.36.948 18.492.948 40.776c0 22.285 18.133 40.415 40.423 40.415 22.291 0 40.424-18.13 40.424-40.415S63.662.361 41.37.361zm0 77.462c-20.432 0-37.054-16.619-37.054-37.047C4.317 20.348 20.939 3.73 41.37 3.73c20.433 0 37.055 16.619 37.055 37.046 0 20.428-16.622 37.047-37.055 37.047z"/><path d="M57.442 39.36l-23.58-15.156a1.68 1.68 0 00-1.717-.063 1.682 1.682 0 00-.879 1.479v30.31a1.682 1.682 0 002.596 1.417l23.58-15.156c.48-.309.773-.843.773-1.416 0-.572-.293-1.106-.773-1.416zM34.635 52.845v-24.14l18.78 12.07-18.78 12.07z"/></g><defs><clipPath id="clip0_1_31"><path fill="#fff" transform="translate(.948 .36)" d="M0 0h80.846v80.829H0z"/></clipPath></defs></svg>